# MagicaVoxel @ Ephtracy

# group
g Arrow

# material
mtllib Arrow.mtl
usemtl palette

# normals
vn -1 0 0
vn 1 0 0
vn 0 0 1
vn 0 0 -1
vn 0 -1 0
vn 0 1 0

# texcoords
vt 0.0410156 0.5
vt 0.873047 0.5
vt 0.994141 0.5

# verts
v -5 0 3
v -5 0 2
v -5 1 3
v -5 1 2
v -4 0 2
v -4 0 1
v -4 1 2
v -4 1 1
v -3 0 4
v -3 0 3
v -3 0 1
v -3 0 -0
v -3 1 4
v -3 1 3
v -3 1 1
v -3 1 -0
v -2 0 6
v -2 0 4
v -2 1 6
v -2 1 4
v 0 0 -0
v 0 0 -1
v 0 1 -0
v 0 1 -1
v 1 0 -1
v 1 0 -2
v 1 1 -1
v 1 1 -2
v 2 0 -2
v 2 0 -3
v 2 1 -2
v 2 1 -3
v 3 0 -3
v 3 0 -4
v 3 1 -3
v 3 1 -4
v 4 0 -4
v 4 0 -5
v 4 1 -4
v 4 1 -5
v 5 0 -5
v 5 0 -6
v 5 1 -5
v 5 1 -6
v 6 0 -6
v 6 0 -7
v 6 1 -6
v 6 1 -7
v 7 0 -7
v 7 0 -8
v 7 0 -9
v 7 1 -7
v 7 1 -8
v 7 1 -9
v -1 0 6
v -1 0 5
v -1 1 6
v -1 1 5
v 0 0 5
v 0 0 4
v 0 1 5
v 0 1 4
v 1 0 4
v 1 0 2
v 1 0 1
v 1 1 4
v 1 1 2
v 1 1 1
v 2 0 1
v 2 0 -0
v 2 1 1
v 2 1 -0
v 3 0 -0
v 3 0 -1
v 3 1 -0
v 3 1 -1
v 4 0 -1
v 4 0 -2
v 4 1 -1
v 4 1 -2
v 5 0 -2
v 5 0 -3
v 5 1 -2
v 5 1 -3
v 6 0 -3
v 6 0 -4
v 6 1 -3
v 6 1 -4
v 7 0 -4
v 7 0 -5
v 7 1 -4
v 7 1 -5
v 8 0 -5
v 8 0 -6
v 8 1 -5
v 8 1 -6
v 10 0 -6
v 10 0 -9
v 10 1 -6
v 10 1 -9
v -2 0 6
v -2 1 6
v -1 0 6
v -1 1 6
v -1 0 5
v -1 1 5
v 0 0 5
v 0 1 5
v -3 0 4
v -3 1 4
v -2 0 4
v -2 1 4
v 0 0 4
v 0 1 4
v 1 0 4
v 1 1 4
v -5 0 3
v -5 1 3
v -3 0 3
v -3 1 3
v 1 0 1
v 1 1 1
v 2 0 1
v 2 1 1
v 2 0 -0
v 2 1 -0
v 3 0 -0
v 3 1 -0
v 3 0 -1
v 3 1 -1
v 4 0 -1
v 4 1 -1
v 4 0 -2
v 4 1 -2
v 5 0 -2
v 5 1 -2
v 5 0 -3
v 5 1 -3
v 6 0 -3
v 6 1 -3
v 6 0 -4
v 6 1 -4
v 7 0 -4
v 7 1 -4
v 7 0 -5
v 7 1 -5
v 8 0 -5
v 8 1 -5
v 8 0 -6
v 8 1 -6
v 9 0 -6
v 9 1 -6
v 10 0 -6
v 10 1 -6
v -5 0 2
v -5 1 2
v -4 0 2
v -4 1 2
v -4 0 1
v -4 1 1
v -3 0 1
v -3 1 1
v -3 0 -0
v -3 1 -0
v -1 0 -0
v -1 1 -0
v 0 0 -0
v 0 1 -0
v 0 0 -1
v 0 1 -1
v 1 0 -1
v 1 1 -1
v 1 0 -2
v 1 1 -2
v 2 0 -2
v 2 1 -2
v 2 0 -3
v 2 1 -3
v 3 0 -3
v 3 1 -3
v 3 0 -4
v 3 1 -4
v 4 0 -4
v 4 1 -4
v 4 0 -5
v 4 1 -5
v 5 0 -5
v 5 1 -5
v 5 0 -6
v 5 1 -6
v 6 0 -6
v 6 1 -6
v 6 0 -7
v 6 1 -7
v 7 0 -7
v 7 1 -7
v 7 0 -9
v 7 1 -9
v 10 0 -9
v 10 1 -9
v -2 0 6
v -1 0 6
v -1 0 5
v 0 0 5
v -3 0 4
v -2 0 4
v -1 0 4
v 0 0 4
v 1 0 4
v -5 0 3
v -3 0 3
v -1 0 3
v 0 0 3
v -5 0 2
v -4 0 2
v -3 0 2
v -2 0 2
v 0 0 2
v 1 0 2
v -4 0 1
v -3 0 1
v -2 0 1
v -1 0 1
v 1 0 1
v 2 0 1
v -3 0 -0
v -1 0 -0
v 0 0 -0
v 2 0 -0
v 3 0 -0
v 0 0 -1
v 1 0 -1
v 3 0 -1
v 4 0 -1
v 1 0 -2
v 2 0 -2
v 4 0 -2
v 5 0 -2
v 2 0 -3
v 3 0 -3
v 5 0 -3
v 6 0 -3
v 3 0 -4
v 4 0 -4
v 6 0 -4
v 7 0 -4
v 4 0 -5
v 5 0 -5
v 7 0 -5
v 8 0 -5
v 5 0 -6
v 6 0 -6
v 8 0 -6
v 9 0 -6
v 10 0 -6
v 6 0 -7
v 7 0 -7
v 8 0 -7
v 9 0 -7
v 7 0 -8
v 8 0 -8
v 7 0 -9
v 10 0 -9
v -2 1 6
v -1 1 6
v -1 1 5
v 0 1 5
v -3 1 4
v -2 1 4
v -1 1 4
v 0 1 4
v 1 1 4
v -5 1 3
v -3 1 3
v -1 1 3
v 0 1 3
v -5 1 2
v -4 1 2
v -3 1 2
v -2 1 2
v 0 1 2
v 1 1 2
v -4 1 1
v -3 1 1
v -2 1 1
v -1 1 1
v 1 1 1
v 2 1 1
v -3 1 -0
v -1 1 -0
v 0 1 -0
v 2 1 -0
v 3 1 -0
v 0 1 -1
v 1 1 -1
v 3 1 -1
v 4 1 -1
v 1 1 -2
v 2 1 -2
v 4 1 -2
v 5 1 -2
v 2 1 -3
v 3 1 -3
v 5 1 -3
v 6 1 -3
v 3 1 -4
v 4 1 -4
v 6 1 -4
v 7 1 -4
v 4 1 -5
v 5 1 -5
v 7 1 -5
v 8 1 -5
v 5 1 -6
v 6 1 -6
v 8 1 -6
v 9 1 -6
v 10 1 -6
v 6 1 -7
v 7 1 -7
v 8 1 -7
v 9 1 -7
v 7 1 -8
v 8 1 -8
v 7 1 -9
v 10 1 -9

# faces
f 3/1/1 2/1/1 1/1/1
f 4/1/1 2/1/1 3/1/1
f 7/1/1 6/1/1 5/1/1
f 8/1/1 6/1/1 7/1/1
f 13/2/1 10/2/1 9/2/1
f 14/2/1 10/2/1 13/2/1
f 15/1/1 12/1/1 11/1/1
f 16/1/1 12/1/1 15/1/1
f 19/1/1 18/1/1 17/1/1
f 20/1/1 18/1/1 19/1/1
f 23/2/1 22/2/1 21/2/1
f 24/2/1 22/2/1 23/2/1
f 27/2/1 26/2/1 25/2/1
f 28/2/1 26/2/1 27/2/1
f 31/2/1 30/2/1 29/2/1
f 32/2/1 30/2/1 31/2/1
f 35/2/1 34/2/1 33/2/1
f 36/2/1 34/2/1 35/2/1
f 39/2/1 38/2/1 37/2/1
f 40/2/1 38/2/1 39/2/1
f 43/2/1 42/2/1 41/2/1
f 44/2/1 42/2/1 43/2/1
f 47/2/1 46/2/1 45/2/1
f 48/2/1 46/2/1 47/2/1
f 52/2/1 50/2/1 49/2/1
f 53/3/1 51/3/1 50/3/1
f 53/2/1 50/2/1 52/2/1
f 54/3/1 51/3/1 53/3/1
f 55/1/2 56/1/2 57/1/2
f 57/1/2 56/1/2 58/1/2
f 59/1/2 60/1/2 61/1/2
f 61/1/2 60/1/2 62/1/2
f 63/1/2 64/1/2 66/1/2
f 64/2/2 65/2/2 67/2/2
f 66/1/2 64/1/2 67/1/2
f 67/2/2 65/2/2 68/2/2
f 69/2/2 70/2/2 71/2/2
f 71/2/2 70/2/2 72/2/2
f 73/2/2 74/2/2 75/2/2
f 75/2/2 74/2/2 76/2/2
f 77/2/2 78/2/2 79/2/2
f 79/2/2 78/2/2 80/2/2
f 81/2/2 82/2/2 83/2/2
f 83/2/2 82/2/2 84/2/2
f 85/2/2 86/2/2 87/2/2
f 87/2/2 86/2/2 88/2/2
f 89/2/2 90/2/2 91/2/2
f 91/2/2 90/2/2 92/2/2
f 93/2/2 94/2/2 95/2/2
f 95/2/2 94/2/2 96/2/2
f 97/3/2 98/3/2 99/3/2
f 99/3/2 98/3/2 100/3/2
f 103/1/3 102/1/3 101/1/3
f 104/1/3 102/1/3 103/1/3
f 107/1/3 106/1/3 105/1/3
f 108/1/3 106/1/3 107/1/3
f 111/2/3 110/2/3 109/2/3
f 112/2/3 110/2/3 111/2/3
f 115/1/3 114/1/3 113/1/3
f 116/1/3 114/1/3 115/1/3
f 119/1/3 118/1/3 117/1/3
f 120/1/3 118/1/3 119/1/3
f 123/2/3 122/2/3 121/2/3
f 124/2/3 122/2/3 123/2/3
f 127/2/3 126/2/3 125/2/3
f 128/2/3 126/2/3 127/2/3
f 131/2/3 130/2/3 129/2/3
f 132/2/3 130/2/3 131/2/3
f 135/2/3 134/2/3 133/2/3
f 136/2/3 134/2/3 135/2/3
f 139/2/3 138/2/3 137/2/3
f 140/2/3 138/2/3 139/2/3
f 143/2/3 142/2/3 141/2/3
f 144/2/3 142/2/3 143/2/3
f 147/2/3 146/2/3 145/2/3
f 148/2/3 146/2/3 147/2/3
f 151/2/3 150/2/3 149/2/3
f 152/2/3 150/2/3 151/2/3
f 153/3/3 152/3/3 151/3/3
f 154/3/3 152/3/3 153/3/3
f 155/1/4 156/1/4 157/1/4
f 157/1/4 156/1/4 158/1/4
f 159/1/4 160/1/4 161/1/4
f 161/1/4 160/1/4 162/1/4
f 163/1/4 164/1/4 165/1/4
f 165/1/4 164/1/4 166/1/4
f 165/2/4 166/2/4 167/2/4
f 167/2/4 166/2/4 168/2/4
f 169/2/4 170/2/4 171/2/4
f 171/2/4 170/2/4 172/2/4
f 173/2/4 174/2/4 175/2/4
f 175/2/4 174/2/4 176/2/4
f 177/2/4 178/2/4 179/2/4
f 179/2/4 178/2/4 180/2/4
f 181/2/4 182/2/4 183/2/4
f 183/2/4 182/2/4 184/2/4
f 185/2/4 186/2/4 187/2/4
f 187/2/4 186/2/4 188/2/4
f 189/2/4 190/2/4 191/2/4
f 191/2/4 190/2/4 192/2/4
f 193/2/4 194/2/4 195/2/4
f 195/2/4 194/2/4 196/2/4
f 197/3/4 198/3/4 199/3/4
f 199/3/4 198/3/4 200/3/4
f 203/1/5 202/1/5 201/1/5
f 206/1/5 203/1/5 201/1/5
f 206/1/5 204/1/5 203/1/5
f 207/1/5 204/1/5 206/1/5
f 208/1/5 204/1/5 207/1/5
f 211/2/5 206/2/5 205/2/5
f 211/2/5 207/2/5 206/2/5
f 212/1/5 209/1/5 208/1/5
f 212/1/5 208/1/5 207/1/5
f 212/2/5 207/2/5 211/2/5
f 213/1/5 209/1/5 212/1/5
f 214/1/5 211/1/5 210/1/5
f 215/1/5 211/1/5 214/1/5
f 216/2/5 212/2/5 211/2/5
f 216/1/5 211/1/5 215/1/5
f 216/2/5 213/2/5 212/2/5
f 217/2/5 213/2/5 216/2/5
f 218/1/5 209/1/5 213/1/5
f 218/2/5 213/2/5 217/2/5
f 219/1/5 209/1/5 218/1/5
f 220/1/5 217/1/5 216/1/5
f 220/1/5 216/1/5 215/1/5
f 221/1/5 217/1/5 220/1/5
f 222/2/5 219/2/5 218/2/5
f 222/1/5 217/1/5 221/1/5
f 222/2/5 218/2/5 217/2/5
f 223/2/5 219/2/5 222/2/5
f 224/2/5 219/2/5 223/2/5
f 226/1/5 222/1/5 221/1/5
f 226/1/5 223/1/5 222/1/5
f 227/2/5 224/2/5 223/2/5
f 227/1/5 223/1/5 226/1/5
f 227/2/5 225/2/5 224/2/5
f 228/2/5 225/2/5 227/2/5
f 229/2/5 225/2/5 228/2/5
f 231/2/5 230/2/5 229/2/5
f 231/2/5 229/2/5 228/2/5
f 232/2/5 230/2/5 231/2/5
f 233/2/5 230/2/5 232/2/5
f 235/2/5 234/2/5 233/2/5
f 235/2/5 233/2/5 232/2/5
f 236/2/5 234/2/5 235/2/5
f 237/2/5 234/2/5 236/2/5
f 239/2/5 238/2/5 237/2/5
f 239/2/5 237/2/5 236/2/5
f 240/2/5 238/2/5 239/2/5
f 241/2/5 238/2/5 240/2/5
f 243/2/5 242/2/5 241/2/5
f 243/2/5 241/2/5 240/2/5
f 244/2/5 242/2/5 243/2/5
f 245/2/5 242/2/5 244/2/5
f 247/2/5 246/2/5 245/2/5
f 247/2/5 245/2/5 244/2/5
f 248/2/5 246/2/5 247/2/5
f 249/2/5 246/2/5 248/2/5
f 251/2/5 250/2/5 249/2/5
f 251/2/5 249/2/5 248/2/5
f 252/2/5 250/2/5 251/2/5
f 253/2/5 250/2/5 252/2/5
f 256/2/5 253/2/5 252/2/5
f 256/2/5 254/2/5 253/2/5
f 257/2/5 254/2/5 256/2/5
f 258/2/5 254/2/5 257/2/5
f 259/3/5 255/3/5 254/3/5
f 259/2/5 254/2/5 258/2/5
f 260/2/5 258/2/5 257/2/5
f 261/3/5 259/3/5 258/3/5
f 261/2/5 258/2/5 260/2/5
f 262/3/5 261/3/5 260/3/5
f 263/3/5 255/3/5 259/3/5
f 263/3/5 261/3/5 262/3/5
f 263/3/5 259/3/5 261/3/5
f 264/1/6 265/1/6 266/1/6
f 264/1/6 266/1/6 269/1/6
f 266/1/6 267/1/6 269/1/6
f 269/1/6 267/1/6 270/1/6
f 270/1/6 267/1/6 271/1/6
f 268/2/6 269/2/6 274/2/6
f 269/2/6 270/2/6 274/2/6
f 271/1/6 272/1/6 275/1/6
f 270/1/6 271/1/6 275/1/6
f 274/2/6 270/2/6 275/2/6
f 275/1/6 272/1/6 276/1/6
f 273/1/6 274/1/6 277/1/6
f 277/1/6 274/1/6 278/1/6
f 274/2/6 275/2/6 279/2/6
f 278/1/6 274/1/6 279/1/6
f 275/2/6 276/2/6 279/2/6
f 279/2/6 276/2/6 280/2/6
f 276/1/6 272/1/6 281/1/6
f 280/2/6 276/2/6 281/2/6
f 281/1/6 272/1/6 282/1/6
f 279/1/6 280/1/6 283/1/6
f 278/1/6 279/1/6 283/1/6
f 283/1/6 280/1/6 284/1/6
f 281/2/6 282/2/6 285/2/6
f 284/1/6 280/1/6 285/1/6
f 280/2/6 281/2/6 285/2/6
f 285/2/6 282/2/6 286/2/6
f 286/2/6 282/2/6 287/2/6
f 284/1/6 285/1/6 289/1/6
f 285/1/6 286/1/6 289/1/6
f 286/2/6 287/2/6 290/2/6
f 289/1/6 286/1/6 290/1/6
f 287/2/6 288/2/6 290/2/6
f 290/2/6 288/2/6 291/2/6
f 291/2/6 288/2/6 292/2/6
f 292/2/6 293/2/6 294/2/6
f 291/2/6 292/2/6 294/2/6
f 294/2/6 293/2/6 295/2/6
f 295/2/6 293/2/6 296/2/6
f 296/2/6 297/2/6 298/2/6
f 295/2/6 296/2/6 298/2/6
f 298/2/6 297/2/6 299/2/6
f 299/2/6 297/2/6 300/2/6
f 300/2/6 301/2/6 302/2/6
f 299/2/6 300/2/6 302/2/6
f 302/2/6 301/2/6 303/2/6
f 303/2/6 301/2/6 304/2/6
f 304/2/6 305/2/6 306/2/6
f 303/2/6 304/2/6 306/2/6
f 306/2/6 305/2/6 307/2/6
f 307/2/6 305/2/6 308/2/6
f 308/2/6 309/2/6 310/2/6
f 307/2/6 308/2/6 310/2/6
f 310/2/6 309/2/6 311/2/6
f 311/2/6 309/2/6 312/2/6
f 312/2/6 313/2/6 314/2/6
f 311/2/6 312/2/6 314/2/6
f 314/2/6 313/2/6 315/2/6
f 315/2/6 313/2/6 316/2/6
f 315/2/6 316/2/6 319/2/6
f 316/2/6 317/2/6 319/2/6
f 319/2/6 317/2/6 320/2/6
f 320/2/6 317/2/6 321/2/6
f 317/3/6 318/3/6 322/3/6
f 321/2/6 317/2/6 322/2/6
f 320/2/6 321/2/6 323/2/6
f 321/3/6 322/3/6 324/3/6
f 323/2/6 321/2/6 324/2/6
f 323/3/6 324/3/6 325/3/6
f 322/3/6 318/3/6 326/3/6
f 325/3/6 324/3/6 326/3/6
f 324/3/6 322/3/6 326/3/6
